<svg width="256" height="256" viewBox="0 0 256 256" fill="none" xmlns="http://www.w3.org/2000/svg">
<rect width="256" height="256" fill="#22272E"/>
<g clip-path="url(#clip0_699_30)">
<path d="M155.6 130.4L144.8 141.2L155.6 152L141.2 166.4L192.8 218C200 225.2 210.8 225.2 218 218C225.2 210.8 225.2 200 218 192.8L155.6 130.4ZM202.4 212C197.6 212 192.8 208.4 192.8 202.4C192.8 197.6 196.4 192.8 202.4 192.8C208.4 192.8 212 196.4 212 202.4C212 208.4 208.4 212 202.4 212ZM75.2 128L86 120.8L104 100.4L114.8 111.2L125.6 100.4L124.4 99.2C126.8 93.2 128 87.2 128 80C128 53.6 106.4 32 80 32C72.8 32 66.8 33.2 60.8 35.6L95.6 70.4L70.4 95.6L35.6 60.8C33.2 66.8 32 72.8 32 80C32 105.2 51.2 124.4 75.2 128Z" fill="#539BF5"/>
<path d="M128 161.6L138.8 152L128 141.2L196.4 72.8002L210.8 68.0002L224 41.6002L215.6 33.2002L188 45.2002L182 59.6002L114.8 128L104 117.2L94.4001 128C94.4001 128 104 135.2 93.2001 146C87.2001 152 77.6001 144.8 59.6001 162.8L34.4001 188C34.4001 188 27.2001 200 41.6001 214.4C56.0001 228.8 68.0001 221.6 68.0001 221.6L93.2001 196.4C110 179.6 104 168.8 108.8 164C119.6 153.2 128 161.6 128 161.6ZM90.8001 156.8L99.2001 165.2L53.6001 210.8L45.2001 202.4L90.8001 156.8Z" fill="#539BF5"/>
</g>
<defs>
<clipPath id="clip0_699_30">
<rect width="192" height="192" fill="white" transform="translate(32 32)"/>
</clipPath>
</defs>
</svg>
